<svg width="300" height="47" viewBox="0 0 300 47" fill="none" xmlns="http://www.w3.org/2000/svg">
<path d="M0 23.1738C0 19.9121 0.615234 16.875 1.8457 14.0625C3.07617 11.2305 4.85352 8.7793 7.17773 6.70898C9.52148 4.61914 12.373 2.97852 15.7324 1.78711C19.1113 0.595703 22.9297 0 27.1875 0C30.918 0 34.3359 0.380859 37.4414 1.14258C40.5664 1.88477 43.4668 3.02734 46.1426 4.57031L41.8652 11.6016C41.0645 11.0742 40.1367 10.6055 39.082 10.1953C38.0469 9.78516 36.9336 9.44336 35.7422 9.16992C34.5703 8.87695 33.3496 8.65234 32.0801 8.49609C30.8301 8.33984 29.5898 8.26172 28.3594 8.26172C25.3906 8.26172 22.7441 8.63281 20.4199 9.375C18.0957 10.0977 16.1328 11.123 14.5312 12.4512C12.9492 13.7598 11.7383 15.332 10.8984 17.168C10.0781 18.9844 9.66797 20.9863 9.66797 23.1738C9.66797 25.4395 10.0977 27.5195 10.957 29.4141C11.8164 31.3086 13.0566 32.9492 14.6777 34.3359C16.3184 35.7031 18.3105 36.7773 20.6543 37.5586C23.0176 38.3203 25.6836 38.7012 28.6523 38.7012C30 38.7012 31.3379 38.6035 32.666 38.4082C33.9941 38.2129 35.2734 37.9492 36.5039 37.6172C37.7539 37.2656 38.9551 36.8555 40.1074 36.3867C41.2598 35.8984 42.334 35.3711 43.3301 34.8047L47.6074 41.8359C45.1074 43.4375 42.2168 44.6973 38.9355 45.6152C35.6543 46.5137 32.168 46.9629 28.4766 46.9629C23.7695 46.9629 19.6387 46.3574 16.084 45.1465C12.5293 43.916 9.56055 42.2363 7.17773 40.1074C4.79492 37.959 2.99805 35.4395 1.78711 32.5488C0.595703 29.6387 0 26.5137 0 23.1738ZM73.4766 0.556641H83.3203L105.469 46.3477H95.7129L92.0508 38.6426H65.3027L61.7578 46.3477H51.9727L73.4766 0.556641ZM88.3887 30.9961L78.4863 10.1953L68.8477 30.9961H88.3887ZM112.529 0.556641H121.816L150.352 15.498V0.556641H159.639V46.3477H150.352V25.3418L121.816 10.4883V46.3477H112.529V0.556641ZM172.529 0.556641H181.816L210.352 15.498V0.556641H219.639V46.3477H210.352V25.3418L181.816 10.4883V46.3477H172.529V0.556641ZM231.416 0.556641H240.762V46.3477H231.416V0.556641ZM252.568 0.556641H261.855L290.391 15.498V0.556641H299.678V46.3477H290.391V25.3418L261.855 10.4883V46.3477H252.568V0.556641Z" fill="#D65A31"/>
</svg>
