<svg width="37" height="37" viewBox="0 0 37 37" fill="none" xmlns="http://www.w3.org/2000/svg">
<path d="M9.66607 3.52882C8.88292 3.70967 8.16196 4.09552 7.57707 4.64682C6.99218 5.19811 6.56441 5.89502 6.33761 6.66611C6.12581 9.49759 6.12014 12.3407 6.32065 15.173C6.39002 15.173 7.07761 15.0404 7.84998 14.8832L9.24982 14.5949L9.28527 10.9967C9.3269 6.8172 9.30994 6.90816 10.1856 6.46724L10.4831 6.32078H18.4998C27.3444 6.32078 26.6953 6.29149 27.1948 6.71545C27.6943 7.13941 27.6697 7.02378 27.7097 10.9951L27.7498 14.5949L29.1527 14.8832C29.9236 15.0374 30.6127 15.1715 30.6821 15.173C30.8831 12.3408 30.8779 9.49763 30.6667 6.66611C30.4395 5.89022 30.0082 5.18951 29.4178 4.63713C28.8275 4.08475 28.0997 3.70094 27.3104 3.52574C26.461 3.32224 10.5063 3.32532 9.67069 3.52574M13.548 10.0007L12.8296 12.8713L12.3331 14.857L11.5515 15.5893L10.7699 16.32L6.93732 17.0369L3.10628 17.7553V23.5427C3.02327 25.4591 3.05209 27.3786 3.19261 29.2916L6.91573 27.9041C8.9199 27.1533 10.6157 26.5274 10.6928 26.5166C10.7992 26.495 11.032 26.6708 11.5824 27.1919L12.3331 27.8856L12.8296 29.8636L13.548 32.7326L13.7715 33.6252H23.2374L23.4609 32.7326L24.1793 29.8636L24.6665 27.8856L25.4126 27.1842C25.963 26.6646 26.1958 26.4873 26.3022 26.5089C26.3808 26.5228 28.0813 27.1487 30.0793 27.8964L33.807 29.2916C33.9487 27.3772 33.9786 25.4561 33.8964 23.5381V17.7553L30.0623 17.0369L26.2313 16.32L25.4496 15.5893L24.6665 14.857L24.1701 12.879L23.4516 10.0084L23.2281 9.11582H13.7669L13.5434 10.0084M20.0184 17.9974C23.9357 18.9347 25.3695 22.9307 22.8396 25.846C19.6114 29.5753 12.9575 27.5418 12.9298 22.8182C12.9113 19.5051 16.4032 17.1309 20.0214 17.9974" fill="#222831"/>
</svg>
