<svg width="229" height="229" viewBox="0 0 229 229" fill="none" xmlns="http://www.w3.org/2000/svg">
<path fill-rule="evenodd" clip-rule="evenodd" d="M114.5 11.927C57.8513 11.927 11.9272 57.851 11.9272 114.5C11.9272 171.149 57.8513 217.073 114.5 217.073C171.149 217.073 217.073 171.149 217.073 114.5C217.073 57.851 171.149 11.927 114.5 11.927ZM92.5734 82.4495C91.2243 81.1452 89.417 80.4231 87.5406 80.4385C85.6643 80.4539 83.869 81.2057 82.5416 82.5319C81.2141 83.8581 80.4606 85.6526 80.4435 87.5289C80.4263 89.4053 81.1468 91.2133 82.4497 92.5636L104.376 114.5L82.4497 136.427C81.1856 137.783 80.4974 139.578 80.5302 141.431C80.5629 143.285 81.3139 145.054 82.6251 146.365C83.9362 147.677 85.7051 148.428 87.559 148.46C89.413 148.493 91.2073 147.805 92.5639 146.541L114.5 124.633L136.427 146.56C137.783 147.824 139.578 148.512 141.432 148.479C143.286 148.447 145.055 147.696 146.366 146.385C147.677 145.073 148.428 143.305 148.461 141.451C148.493 139.597 147.805 137.802 146.541 136.446L124.614 114.5L146.541 92.5732C147.244 91.918 147.808 91.128 148.199 90.2501C148.59 89.3723 148.801 88.4247 148.818 87.4638C148.835 86.5029 148.658 85.5485 148.298 84.6574C147.938 83.7663 147.402 82.9569 146.723 82.2773C146.043 81.5978 145.234 81.0621 144.343 80.7022C143.452 80.3422 142.497 80.1655 141.536 80.1824C140.575 80.1994 139.628 80.4097 138.75 80.8008C137.872 81.192 137.082 81.7559 136.427 82.459L114.5 104.367L92.5734 82.4495Z" fill="#D65A31"/>
</svg>
