<svg width="270" height="270" viewBox="0 0 270 270" fill="none" xmlns="http://www.w3.org/2000/svg">
<path fill-rule="evenodd" clip-rule="evenodd" d="M135 236.25C148.296 236.25 161.462 233.631 173.747 228.543C186.031 223.455 197.193 215.996 206.595 206.595C215.996 197.193 223.455 186.031 228.543 173.747C233.631 161.462 236.25 148.296 236.25 135C236.25 121.704 233.631 108.538 228.543 96.2533C223.455 83.9691 215.996 72.8074 206.595 63.4054C197.193 54.0035 186.031 46.5455 173.747 41.4572C161.462 36.3689 148.296 33.75 135 33.75C108.147 33.75 82.3935 44.4174 63.4054 63.4054C44.4174 82.3935 33.75 108.147 33.75 135C33.75 161.853 44.4174 187.606 63.4054 206.595C82.3935 225.583 108.147 236.25 135 236.25ZM132.39 175.95L188.64 108.45L171.36 94.05L122.985 152.089L97.9538 127.046L82.0463 142.954L115.796 176.704L124.504 185.411L132.39 175.95Z" fill="#D65A31"/>
</svg>
