<svg width="37" height="37" viewBox="0 0 37 37" fill="none" xmlns="http://www.w3.org/2000/svg">
<path d="M18.4998 18.5001C16.804 18.5001 15.3523 17.8963 14.1446 16.6886C12.937 15.481 12.3332 14.0292 12.3332 12.3334C12.3332 10.6376 12.937 9.18585 14.1446 7.97821C15.3523 6.77057 16.804 6.16675 18.4998 6.16675C20.1957 6.16675 21.6474 6.77057 22.855 7.97821C24.0627 9.18585 24.6665 10.6376 24.6665 12.3334C24.6665 14.0292 24.0627 15.481 22.855 16.6886C21.6474 17.8963 20.1957 18.5001 18.4998 18.5001ZM6.1665 30.8334V26.5167C6.1665 25.6431 6.39159 24.8404 6.84175 24.1087C7.29192 23.3769 7.88906 22.8178 8.63317 22.4313C10.2262 21.6348 11.845 21.0377 13.4894 20.6399C15.1339 20.2422 16.804 20.0428 18.4998 20.0417C20.1957 20.0407 21.8658 20.2401 23.5103 20.6399C25.1547 21.0397 26.7734 21.6369 28.3665 22.4313C29.1116 22.8167 29.7093 23.3759 30.1595 24.1087C30.6096 24.8415 30.8342 25.6442 30.8332 26.5167V30.8334H6.1665Z" fill="#222831"/>
</svg>
