<svg width="37" height="37" viewBox="0 0 37 37" fill="none" xmlns="http://www.w3.org/2000/svg">
<path d="M1.5415 6.16675H35.4582V13.9383C34.3786 14.1186 33.398 14.676 32.6907 15.5112C31.9834 16.3465 31.5952 17.4056 31.5952 18.5001C31.5952 19.5946 31.9834 20.6536 32.6907 21.4889C33.398 22.3242 34.3786 22.8815 35.4582 23.0619V30.8334H1.5415V23.0619C2.62204 22.8825 3.60385 22.3255 4.31211 21.4899C5.02037 20.6544 5.40911 19.5946 5.40911 18.4993C5.40911 17.404 5.02037 16.3442 4.31211 15.5087C3.60385 14.6732 2.62204 14.1161 1.5415 13.9367V6.16675ZM24.6665 16.9584V13.8751H12.3332V16.9584H24.6665ZM24.6665 23.1251V20.0417H12.3332V23.1251H24.6665Z" fill="#222831"/>
</svg>
