<svg width="261" height="62" viewBox="0 0 261 62" fill="none" xmlns="http://www.w3.org/2000/svg">
<path d="M0 62V0H9.17578V62H0ZM13.6908 61.9559V0H18.3516V61.9559H13.6908ZM27.5273 61.9559V0H32.0423V61.9559H27.5273ZM50.3939 61.9559V0H54.9089V61.9559H50.3939ZM68.7455 61.9559V0H77.7755V61.9559H68.7455ZM91.612 61.9559V0H96.127V61.9559H91.612ZM100.788 61.9559V0H105.303V61.9559H100.788ZM109.964 61.9559V0H114.479V61.9559H109.964ZM128.17 61.9559V0H137.346V61.9559H128.17ZM151.036 61.9559V0H160.212V61.9559H151.036ZM169.387 61.9559V0H178.564V61.9559H169.387ZM187.74 61.9559V0H196.916V61.9559H187.74ZM201.43 61.9559V0H210.606V61.9559H201.43ZM224.443 61.9559V0H238.133V61.9559H224.443ZM242.648 61.9559V0H247.309V61.9559H242.648ZM251.824 62V0H261V62H251.824Z" fill="#222831"/>
</svg>
